<?xml version="1.0" encoding="UTF-8"?>
<svg width="720" height="420" viewBox="0 0 720 420" fill="none" xmlns="http://www.w3.org/2000/svg" role="img" aria-label="Abstract data visualization illustration">
  <defs>
    <linearGradient id="g1" x1="0" y1="0" x2="1" y2="1">
      <stop offset="0" stop-color="#5ad1e8" stop-opacity="0.9"/>
      <stop offset="1" stop-color="#9b86f1" stop-opacity="0.9"/>
    </linearGradient>
    <linearGradient id="g2" x1="0" y1="0" x2="0" y2="1">
      <stop offset="0" stop-color="#5ad1e8" stop-opacity="0.25"/>
      <stop offset="1" stop-color="#5ad1e8" stop-opacity="0"/>
    </linearGradient>
    <filter id="blur"><feGaussianBlur in="SourceGraphic" stdDeviation="18"/></filter>
  </defs>
  <rect width="720" height="420" rx="18" fill="#0f162f"/>
  <g opacity="0.35" filter="url(#blur)">
    <circle cx="600" cy="40" r="120" fill="#5ad1e8"/>
    <circle cx="100" cy="360" r="120" fill="#9b86f1"/>
  </g>
  <g transform="translate(36,36)">
    <rect x="0" y="0" width="300" height="190" rx="14" fill="#121932" stroke="rgba(255,255,255,0.08)"/>
    <g transform="translate(14,14)">
      <polyline fill="url(#g2)" stroke="none" points="0,120 24,100 48,112 72,80 96,92 120,74 144,66 168,78 192,60 216,70 240,52 240,140 0,140"/>
      <polyline fill="none" stroke="url(#g1)" stroke-width="2.5" points="0,120 24,100 48,112 72,80 96,92 120,74 144,66 168,78 192,60 216,70 240,52"/>
      <g fill="#5ad1e8">
        <circle cx="24" cy="100" r="2.8"/>
        <circle cx="72" cy="80" r="2.8"/>
        <circle cx="120" cy="74" r="2.8"/>
        <circle cx="168" cy="78" r="2.8"/>
        <circle cx="216" cy="70" r="2.8"/>
      </g>
    </g>
  </g>

  <g transform="translate(384,36)">
    <rect x="0" y="0" width="300" height="190" rx="14" fill="#121932" stroke="rgba(255,255,255,0.08)"/>
    <g transform="translate(18,18)">
      <rect x="16" y="66" width="34" height="80" rx="6" fill="#5ad1e8" opacity="0.9"/>
      <rect x="66" y="30" width="34" height="116" rx="6" fill="#75dcf0" opacity="0.9"/>
      <rect x="116" y="10" width="34" height="136" rx="6" fill="#9b86f1" opacity="0.9"/>
      <rect x="166" y="52" width="34" height="94" rx="6" fill="#7a9bf4" opacity="0.9"/>
    </g>
  </g>

  <g transform="translate(36,230)">
    <rect x="0" y="0" width="648" height="154" rx="14" fill="#121932" stroke="rgba(255,255,255,0.08)"/>
    <g transform="translate(18,18)">
      <rect x="0" y="0" width="612" height="118" rx="12" fill="#0f162f" stroke="rgba(255,255,255,0.05)"/>
      <g stroke="rgba(255,255,255,0.08)" stroke-width="1">
        <line x1="24" y1="18" x2="24" y2="100"/>
        <line x1="84" y1="18" x2="84" y2="100"/>
        <line x1="144" y1="18" x2="144" y2="100"/>
        <line x1="204" y1="18" x2="204" y2="100"/>
        <line x1="264" y1="18" x2="264" y2="100"/>
        <line x1="324" y1="18" x2="324" y2="100"/>
        <line x1="384" y1="18" x2="384" y2="100"/>
        <line x1="444" y1="18" x2="444" y2="100"/>
        <line x1="504" y1="18" x2="504" y2="100"/>
        <line x1="564" y1="18" x2="564" y2="100"/>
      </g>
      <g fill="#5ad1e8">
        <circle cx="24" cy="90" r="4"/>
        <circle cx="84" cy="70" r="4"/>
        <circle cx="144" cy="84" r="4"/>
        <circle cx="204" cy="56" r="4"/>
        <circle cx="264" cy="40" r="4"/>
        <circle cx="324" cy="60" r="4"/>
        <circle cx="384" cy="36" r="4"/>
        <circle cx="444" cy="50" r="4"/>
        <circle cx="504" cy="28" r="4"/>
        <circle cx="564" cy="44" r="4"/>
      </g>
    </g>
  </g>
</svg>
